# xmcd
#
# Track frame offsets: 
#        150
#        14165
#        25035
#        35488
#        45446
#        57892
#        71904
#        82420
#        94318
#        104548
#        117799
#        129362
#        138706
#        151832
#        160736
#        170602
#        180636
#        193454
#
# Disc length: 2717 seconds
#
# Revision: 0
# Processed by: cddbd v1.5.2PL0 Copyright (c) Steve Scherf et al.
# Submitted via: ExactAudioCopy v1.0b3
#
DISCID=030a9b12
DTITLE=Various Artist - The Cobra Records Singles Collection [CD1]
DYEAR=2012
DGENRE=R&B
TTITLE0=Otis Rush - I Can't Quit You Baby
TTITLE1=The Clouds - Rock And Roll Boogie 
TTITLE2=Shakey Horton - Have a Good Time
TTITLE3=The Calvaes - Fine Girl
TTITLE4=Harold Burrage - You Eat Too Much
TTITLE5=Otis Rush - My Love Will Never Die
TTITLE6=Sunnyland Slim - It's You Baby
TTITLE7=Lee Jackson - Fishin' in My Pond
TTITLE8=Gloria Irving - I Need a Man
TTITLE9=Duke Jenkins - The Duke Walks
TTITLE10=Little Willie Foster - Little Girl
TTITLE11=Harold Burrage - Messed Up
TTITLE12=Magic Sam  - All Your Love
TTITLE13=The Calvaes - Lonely Lonely Village
TTITLE14=Clarence Jollly - Don't Leave Me
TTITLE15=Guitar Shorty - You Don't Treat Me Right
TTITLE16=Harold Burrage - Stop For The Red Light
TTITLE17=Betty Everett - My Love
EXTD=
EXTT0=
EXTT1=
EXTT2=
EXTT3=
EXTT4=
EXTT5=
EXTT6=
EXTT7=
EXTT8=
EXTT9=
EXTT10=
EXTT11=
EXTT12=
EXTT13=
EXTT14=
EXTT15=
EXTT16=
EXTT17=
PLAYORDER=
